<svg version="1.1" id="Layer_1" xmlns="http://www.w3.org/2000/svg" xmlns:xlink="http://www.w3.org/1999/xlink" x="0px" y="0px"
	 width="100%" viewBox="0 0 500 500" enable-background="new 0 0 500 500" xml:space="preserve">
<path fill="#FEFEFE" opacity="1.000000" stroke="none" 
	d="
M333.000000,501.000000 
	C223.333359,501.000000 114.166695,500.979401 5.000179,501.095367 
	C1.576362,501.098999 0.903033,500.423889 0.905298,497.000031 
	C1.013776,333.000122 1.013758,169.000153 0.905339,5.000260 
	C0.903076,1.576988 1.575754,0.903019 4.999863,0.905285 
	C168.999756,1.013775 332.999725,1.013760 496.999634,0.905354 
	C500.422638,0.903092 501.096985,1.575406 501.094727,4.999744 
	C500.986206,168.999634 500.986237,332.999603 501.094604,496.999512 
	C501.096893,500.422272 500.426147,501.105957 497.000183,501.097290 
	C442.500366,500.959045 388.000153,501.000000 333.000000,501.000000 
z"/>
<path fill="#020202" opacity="1.000000" stroke="none" 
	d="
M288.925171,276.112213 
	C251.137695,256.608521 232.279984,225.718338 232.725494,183.705688 
	C233.127655,145.780273 249.424088,116.125259 282.871735,97.574402 
	C317.997742,78.092651 368.116394,87.140953 394.456696,116.383987 
	C396.711548,118.887291 397.333527,120.339989 394.600922,123.173576 
	C386.055267,132.035187 377.916351,141.289078 369.491241,150.531967 
	C368.816223,149.725983 368.209320,149.153534 367.781860,148.469040 
	C350.494598,120.785599 305.341553,114.551987 285.325775,156.054291 
	C274.139954,179.247833 277.908081,209.512222 294.400421,228.257156 
	C311.321442,247.489319 339.322449,249.234375 357.651917,232.240067 
	C363.798096,226.541565 367.035004,219.493576 368.000946,211.239258 
	C368.346771,208.283752 367.676514,207.155685 364.370087,207.216293 
	C352.712646,207.429993 341.043243,207.092499 329.390564,207.410492 
	C325.263184,207.523132 324.484009,206.127380 324.604187,202.399887 
	C324.867096,194.245422 324.752808,186.075714 324.645569,177.914185 
	C324.612518,175.399353 324.873688,174.030380 328.041504,174.045227 
	C354.862061,174.170990 381.683411,174.111465 408.504547,174.131470 
	C410.043274,174.132614 411.968140,173.521210 411.946533,176.317001 
	C411.844849,189.474518 413.343231,202.859558 411.415771,215.736053 
	C408.696625,233.901321 400.106689,250.020004 385.423981,261.648621 
	C356.307434,284.708710 324.097046,289.607849 288.925171,276.112213 
z"/>
<path fill="#020202" opacity="1.000000" stroke="none" 
	d="
M171.423691,163.615005 
	C184.280167,169.519714 197.396423,174.090164 208.473907,182.640289 
	C218.783066,190.597366 227.883759,199.472992 231.047958,212.764664 
	C237.897919,241.538940 221.846161,269.771576 192.329315,278.604065 
	C156.885437,289.210144 123.938324,282.608124 93.682793,261.569000 
	C90.647308,259.458160 90.202843,257.765869 92.246368,254.519302 
	C98.090904,245.233978 103.666626,235.772202 109.090080,226.233154 
	C110.876663,223.090820 111.917404,222.519119 115.140793,224.961258 
	C127.032173,233.970490 139.840073,241.349808 154.976822,243.339081 
	C161.132736,244.148102 167.278397,243.371796 173.205032,241.386139 
	C179.544495,239.262161 183.735443,235.133362 184.856964,228.363556 
	C185.981247,221.577026 183.353256,216.376251 177.932251,212.354248 
	C171.067352,207.261017 163.338608,203.762787 155.675766,200.141205 
	C148.163528,196.590820 140.567490,193.216217 133.497879,188.794662 
	C93.306122,163.657471 100.968605,115.205185 136.533325,95.805275 
	C155.709320,85.345131 175.536377,86.129768 195.689224,91.396553 
	C205.497208,93.959793 215.026016,97.405952 223.579147,103.172890 
	C226.235199,104.963737 226.455521,106.375923 225.011124,109.092934 
	C220.254608,118.040283 215.616135,127.058632 211.257034,136.204468 
	C209.757690,139.350250 208.608047,139.273209 205.811996,137.691742 
	C193.947342,130.981003 181.482437,126.118141 167.467514,126.947578 
	C163.071518,127.207756 158.932709,128.281433 155.268356,130.826279 
	C146.957352,136.598175 146.458496,147.347015 154.314636,153.665451 
	C159.399811,157.755295 165.268753,160.573563 171.423691,163.615005 
z"/>
<path fill="#131313" opacity="1.000000" stroke="none" 
	d="
M470.385712,344.973022 
	C470.385681,341.983551 470.413116,339.486206 470.377350,336.989807 
	C470.345734,334.782562 471.146362,332.047638 467.254242,332.287140 
	C465.849670,332.373535 465.959290,331.109070 465.958984,330.116089 
	C465.958679,329.069672 466.578278,328.653107 467.519409,328.646027 
	C470.848206,328.621002 474.177185,328.628479 477.506042,328.608429 
	C478.718262,328.601135 479.341125,329.151123 479.362183,330.384827 
	C479.381714,331.528168 479.007263,332.463196 477.725281,332.334259 
	C474.408844,332.000702 474.961639,334.295532 474.960449,336.233002 
	C474.955444,344.389648 475.020477,352.547180 474.899628,360.702057 
	C474.878418,362.131683 476.045013,364.291870 473.677551,364.933685 
	C471.385864,365.554901 469.550415,364.701385 468.211761,362.560455 
	C463.542419,355.092346 458.772003,347.687408 454.040283,340.258301 
	C453.600677,339.568085 453.163177,338.876556 451.757202,338.176025 
	C451.757202,345.304901 451.748016,352.433838 451.763672,359.562683 
	C451.767639,361.370514 453.174469,361.082947 454.276062,361.091705 
	C455.895721,361.104614 456.126892,362.103058 456.135864,363.398590 
	C456.148254,365.189728 454.887817,365.028870 453.730621,365.031891 
	C450.734314,365.039734 447.737915,365.019440 444.741760,365.040833 
	C443.643799,365.048676 442.730804,364.881409 442.747406,363.504822 
	C442.761597,362.325928 442.715515,360.938690 444.447601,361.137299 
	C447.347321,361.469757 447.122162,359.627472 447.111816,357.720642 
	C447.073029,350.562988 447.100128,343.405029 447.093842,336.247162 
	C447.092133,334.308716 447.638367,332.013184 444.328583,332.334381 
	C443.015503,332.461792 442.691559,331.496460 442.737091,330.367462 
	C442.773132,329.474182 442.993988,328.625061 444.065338,328.652557 
	C447.889771,328.750702 451.793182,327.589081 454.468292,332.278625 
	C459.064728,340.336273 464.360107,347.995270 469.687012,356.329987 
	C471.037689,352.480347 470.071259,348.911652 470.385712,344.973022 
z"/>
<path fill="#080808" opacity="1.000000" stroke="none" 
	d="
M345.847595,353.183289 
	C342.389130,347.776428 339.111877,342.683350 335.078461,336.415100 
	C335.078461,344.884338 335.135590,351.961700 335.041138,359.037048 
	C335.015228,360.978363 335.988342,361.221680 337.491730,361.134125 
	C339.248932,361.031769 339.899353,361.992249 339.702789,363.608978 
	C339.493958,365.326416 338.102203,364.983002 337.010193,364.998810 
	C334.181061,365.039825 331.350830,365.023163 328.521210,365.004852 
	C327.360657,364.997345 326.138794,365.100128 326.119995,363.328339 
	C326.104797,361.896301 326.656616,361.005859 328.123260,361.158844 
	C331.024872,361.461517 330.793274,359.574768 330.785034,357.676971 
	C330.753937,350.519531 330.756866,343.361816 330.782562,336.204315 
	C330.789917,334.160553 331.104492,332.022858 327.925598,332.291443 
	C326.761292,332.389832 326.128479,331.773773 326.107544,330.501984 
	C326.079865,328.822784 327.159241,328.751465 328.402405,328.631714 
	C332.785583,328.209503 336.181366,328.895294 338.707245,333.412811 
	C343.131744,341.325928 348.337921,348.802002 353.968170,357.641052 
	C353.968170,349.159393 353.910767,341.950470 354.003815,334.743500 
	C354.030975,332.639069 353.040131,332.212219 351.266876,332.310760 
	C350.086517,332.376312 349.430786,331.737946 349.426270,330.507172 
	C349.420441,328.916779 350.417572,328.625671 351.736084,328.637390 
	C354.732056,328.664001 357.728577,328.630127 360.724518,328.658142 
	C361.703918,328.667328 362.768250,328.633636 362.915741,330.040527 
	C363.058685,331.403687 362.689941,332.407501 361.115723,332.306610 
	C357.902466,332.100708 358.320160,334.337128 358.320374,336.323517 
	C358.321289,344.646301 358.368500,352.969635 358.268799,361.291229 
	C358.253723,362.549072 359.284973,364.534210 356.982666,364.950653 
	C355.131592,365.285431 353.357727,365.048340 352.193573,363.166351 
	C350.182892,359.915924 348.088226,356.717407 345.847595,353.183289 
z"/>
<path fill="#101010" opacity="1.000000" stroke="none" 
	d="
M86.765244,355.944000 
	C86.761856,348.882019 86.761856,348.881989 80.238457,348.881165 
	C79.072433,348.881012 77.906410,348.881134 76.740387,348.881134 
	C67.478752,348.881134 67.525490,348.879242 67.899918,358.121277 
	C67.975319,359.982483 67.983368,361.436432 70.465042,361.135162 
	C72.065750,360.940887 72.370895,362.045715 72.383286,363.351471 
	C72.399902,365.104034 71.190750,365.035095 69.986069,365.031036 
	C66.987762,365.020935 63.989323,365.038177 60.991108,365.018555 
	C59.983002,365.011963 58.938896,365.009277 58.946205,363.532562 
	C58.952312,362.299072 59.018566,361.008850 60.673561,361.159668 
	C63.512154,361.418304 63.406261,359.652435 63.393127,357.691559 
	C63.345146,350.529144 63.350834,343.366150 63.388794,336.203644 
	C63.399899,334.108063 63.588490,332.054352 60.470257,332.312744 
	C59.080746,332.427856 58.952175,331.413696 58.938824,330.322418 
	C58.922493,328.987885 59.671612,328.629883 60.823013,328.631714 
	C63.987774,328.636719 67.152710,328.641357 70.317261,328.612244 
	C71.448334,328.601868 72.279854,328.888733 72.369965,330.186523 
	C72.445610,331.275970 72.210510,332.418579 70.929893,332.293945 
	C67.309753,331.941711 67.962677,334.409332 67.936142,336.505890 
	C67.828392,345.019806 67.824440,345.019745 76.451027,345.019745 
	C76.950752,345.019745 77.450478,345.019745 77.950203,345.019745 
	C87.200951,345.019745 87.148964,345.021698 86.804459,335.799042 
	C86.727028,333.726074 86.601303,332.143341 83.932556,332.321655 
	C82.802437,332.397156 82.103096,331.794739 82.107933,330.516602 
	C82.112610,329.280396 82.685509,328.662903 83.885193,328.654755 
	C87.216141,328.632080 90.547348,328.624573 93.878319,328.639435 
	C95.046425,328.644653 95.720558,329.223053 95.731781,330.458008 
	C95.742798,331.671997 95.123589,332.431000 93.947205,332.315857 
	C90.725296,332.000519 91.088120,334.152985 91.095871,336.182190 
	C91.120689,342.678497 91.055748,349.175507 91.129944,355.671082 
	C91.158531,358.173798 89.811546,361.654510 94.664978,361.322784 
	C95.529739,361.263641 95.717087,362.426361 95.721146,363.297760 
	C95.727173,364.590790 94.977737,365.022430 93.822296,365.022552 
	C90.657394,365.022827 87.492287,365.043884 84.327713,365.012177 
	C83.359337,365.002472 82.256882,365.057465 82.149025,363.629913 
	C82.053787,362.369263 82.201263,361.080261 83.810638,361.186157 
	C87.894119,361.454895 86.547249,358.497681 86.765244,355.944000 
z"/>
<path fill="#0F0F0F" opacity="1.000000" stroke="none" 
	d="
M40.254471,333.112610 
	C39.187019,332.899567 38.534554,332.727203 37.874481,332.690094 
	C34.100868,332.477844 30.076820,332.438538 29.031897,337.040161 
	C27.954922,341.782959 32.076706,342.699554 35.312500,343.862549 
	C38.741714,345.095093 42.338455,345.881775 45.719570,347.222473 
	C49.385258,348.676025 51.798367,351.376312 51.542770,355.606934 
	C51.260723,360.275391 48.714169,363.507629 44.245434,364.628815 
	C38.193134,366.147369 32.358059,365.636841 27.771580,360.880768 
	C26.516972,361.539886 26.889107,362.455811 26.891781,363.164642 
	C26.897959,364.802887 25.924128,364.983398 24.622246,365.045502 
	C22.967255,365.124481 22.718092,364.188995 22.730808,362.870728 
	C22.756472,360.210266 22.670998,357.547028 22.764629,354.889648 
	C22.805368,353.733398 22.091152,352.067505 24.298027,351.897919 
	C25.973200,351.769226 26.647224,352.222778 27.382662,354.027802 
	C29.692554,359.697083 34.804344,362.151123 40.745392,360.935394 
	C43.513317,360.369019 45.727875,359.085449 46.117401,355.891907 
	C46.505371,352.711151 44.365452,351.360840 41.959904,350.489807 
	C38.378857,349.193146 34.634739,348.342743 31.065933,347.017242 
	C25.604153,344.988739 23.436100,341.784119 23.920900,337.029388 
	C24.371227,332.612793 27.700899,329.530273 32.988667,328.504883 
	C36.038029,327.913574 38.967461,328.372894 41.788757,329.447998 
	C43.539566,330.115143 45.029667,332.237335 46.584621,328.862152 
	C47.012569,327.933258 49.825569,328.126648 49.809811,330.785004 
	C49.794037,333.445648 49.798130,336.106445 49.804783,338.767181 
	C49.808281,340.164734 49.231880,340.933960 47.731113,340.907501 
	C46.496101,340.885773 45.270195,340.826111 45.212914,339.227997 
	C45.101688,336.125061 43.133888,334.498230 40.254471,333.112610 
z"/>
<path fill="#0F0F0F" opacity="1.000000" stroke="none" 
	d="
M266.914062,352.031494 
	C265.821655,352.031372 265.125000,352.158844 264.497437,352.004852 
	C263.157166,351.675903 260.787201,353.196259 260.841827,350.208984 
	C260.893341,347.391785 263.143646,348.409882 264.565002,348.370056 
	C275.082306,348.075439 275.083282,348.104828 275.082550,358.483673 
	C275.082428,359.980713 275.120819,361.479309 275.061981,362.974091 
	C275.032104,363.732544 275.265198,364.733734 274.096069,364.928772 
	C273.110840,365.093109 271.447662,365.228058 271.352997,364.471527 
	C270.723846,359.442993 268.490204,363.266327 267.301727,363.801392 
	C260.340363,366.935547 251.577255,365.362946 246.615540,359.891388 
	C241.233658,353.956512 240.317978,343.710144 244.533142,336.589569 
	C248.514893,329.863251 256.114868,326.818359 263.897858,328.905365 
	C265.160736,329.243988 266.438782,329.739868 267.533295,330.439301 
	C268.935822,331.335663 270.140747,332.907318 270.431824,329.626740 
	C270.539215,328.416107 271.964447,328.611694 272.928406,328.665894 
	C274.237091,328.739502 274.443390,329.671387 274.433228,330.767700 
	C274.410034,333.262512 274.401062,335.758057 274.435760,338.252594 
	C274.452240,339.435272 274.048889,340.247467 272.775360,340.163208 
	C271.745331,340.095062 270.772156,340.518890 269.868134,339.077576 
	C265.540741,332.178223 258.207031,330.525116 252.362137,334.869965 
	C246.230743,339.427795 244.796585,349.801056 249.447708,355.950226 
	C253.816010,361.725494 263.061829,362.773621 268.613190,358.215759 
	C270.325470,356.809906 271.307495,355.166290 270.719025,353.033813 
	C270.219421,351.223419 268.479095,352.375122 266.914062,352.031494 
z"/>
<path fill="#090909" opacity="1.000000" stroke="none" 
	d="
M192.282867,350.263184 
	C190.195877,353.294525 191.358200,356.491760 191.137222,359.575531 
	C190.975861,361.827209 192.913559,361.079529 194.032852,361.076813 
	C195.756638,361.072632 196.461975,361.752899 196.389130,363.435242 
	C196.312347,365.208160 195.045105,365.011292 193.890656,365.013824 
	C190.890869,365.020416 187.890686,365.043427 184.891418,365.003082 
	C183.635651,364.986176 182.094925,365.342651 182.116364,363.200378 
	C182.131302,361.708771 182.841324,361.012665 184.249146,361.143921 
	C187.279861,361.426392 186.763412,359.307098 186.765182,357.536560 
	C186.772217,350.537018 186.755615,343.537445 186.775558,336.537964 
	C186.781723,334.367950 187.240540,331.995117 183.741837,332.273895 
	C182.511734,332.371887 182.063980,331.525421 182.113342,330.320068 
	C182.168243,328.979614 182.990936,328.661163 184.090439,328.657745 
	C187.089828,328.648376 190.089355,328.651459 193.088699,328.670502 
	C193.980423,328.676147 194.746277,328.958954 194.842133,329.999115 
	C194.917023,330.812012 195.018997,332.028687 194.049179,332.066376 
	C189.868103,332.228638 191.319595,335.297302 191.090988,337.495361 
	C191.022400,338.154846 190.918076,338.878632 191.109055,339.485107 
	C191.854462,341.851959 189.131927,345.475372 192.999237,346.578613 
	C197.769226,347.939301 203.380936,345.583893 205.273956,342.006744 
	C206.377533,339.921387 206.803238,337.624481 206.938141,335.274597 
	C207.026962,333.727386 207.222687,332.134552 204.851257,332.326355 
	C203.253525,332.455627 202.900650,331.552246 202.968094,330.153015 
	C203.037506,328.712677 203.999985,328.656738 205.020721,328.650482 
	C207.853745,328.633179 210.686920,328.647125 213.520020,328.639038 
	C214.670868,328.635742 215.435837,329.055634 215.483063,330.325958 
	C215.525574,331.469269 215.137009,332.371643 213.858047,332.307739 
	C210.990128,332.164459 211.239319,334.214508 211.146194,336.019379 
	C210.988678,339.072266 210.625153,342.441986 208.456558,344.403320 
	C204.950333,347.574402 205.769348,350.189270 208.194183,353.170837 
	C210.509064,356.017181 210.059326,361.253723 215.421661,361.558350 
	C215.635406,361.570496 215.893402,363.016632 215.907959,363.798798 
	C215.929260,364.942871 214.981201,364.954102 214.146973,365.011353 
	C211.381119,365.201080 208.764282,365.151794 207.566772,361.916931 
	C207.108109,360.677917 206.224075,359.582703 205.851807,358.327667 
	C203.879898,351.679718 199.563263,348.938599 192.282867,350.263184 
z"/>
<path fill="#0F0F0F" opacity="1.000000" stroke="none" 
	d="
M168.481812,361.549255 
	C160.257950,366.879395 151.409424,366.450012 145.323486,360.680725 
	C139.355072,355.022827 137.831833,344.556915 141.906479,337.203217 
	C145.835800,330.111816 154.316086,326.721313 162.456177,328.987274 
	C175.935181,332.739349 179.357040,350.296051 168.481812,361.549255 
z"/>
<path fill="#080808" opacity="1.000000" stroke="none" 
	d="
M309.942322,346.867371 
	C309.942322,343.221771 309.984406,340.054810 309.927643,336.889679 
	C309.889160,334.744537 310.859711,331.912231 306.847137,332.262939 
	C305.634949,332.368896 305.262512,331.285034 305.379547,330.151398 
	C305.482208,329.157288 306.106506,328.681732 307.033752,328.674164 
	C310.366028,328.646973 313.698639,328.661377 317.031128,328.666351 
	C318.185669,328.668060 318.872559,329.108948 318.912842,330.408661 
	C318.952087,331.674835 318.370026,332.381287 317.194275,332.292725 
	C314.090973,332.058929 314.239594,334.067719 314.245148,336.188568 
	C314.259979,341.853180 314.382202,347.528168 314.094299,353.180328 
	C313.690796,361.102661 308.838928,365.288574 300.574799,365.262268 
	C292.421387,365.236298 287.491547,360.941223 287.086182,353.060638 
	C286.795471,347.408936 286.950165,341.732391 286.978821,336.067291 
	C286.989410,333.974915 287.232086,331.947754 284.058380,332.280426 
	C282.873138,332.404694 282.331696,331.522034 282.407074,330.320923 
	C282.487061,329.046783 283.276917,328.648315 284.402832,328.647705 
	C287.568939,328.646027 290.735199,328.636383 293.901123,328.660767 
	C294.920258,328.668610 295.880585,328.759705 295.959290,330.184692 
	C296.039642,331.640411 295.511810,332.425537 294.003174,332.322174 
	C291.223358,332.131805 291.270447,333.970825 291.287506,335.924011 
	C291.331146,340.922882 291.197845,345.925171 291.331116,350.920898 
	C291.524384,358.165314 294.343658,361.149261 300.702240,361.139496 
	C307.055664,361.129730 309.791107,358.085846 309.938171,350.846161 
	C309.961884,349.680145 309.942017,348.513275 309.942322,346.867371 
z"/>
<path fill="#0D0D0D" opacity="1.000000" stroke="none" 
	d="
M410.544922,332.578186 
	C408.776917,332.300354 408.077667,331.600555 408.263794,330.132080 
	C408.429596,328.823761 409.392273,328.779724 410.420135,328.610962 
	C416.277100,327.649292 417.976898,328.607605 420.115295,334.163788 
	C423.032898,341.744568 425.962463,349.320831 428.891388,356.897247 
	C429.689484,358.961731 429.826080,361.569702 433.214233,361.225128 
	C434.432953,361.101166 434.590668,362.421173 434.567047,363.455627 
	C434.536255,364.804962 433.608124,365.021973 432.523621,365.019806 
	C429.530853,365.013794 426.538086,365.008942 423.545319,365.006012 
	C422.617920,365.005096 421.881409,364.732513 421.944794,363.638000 
	C421.997620,362.726471 421.605896,361.591278 422.960266,361.195496 
	C424.088684,360.865753 426.620422,361.703003 425.094818,359.011444 
	C423.811523,356.747406 424.685211,352.841278 420.879028,352.479248 
	C417.418854,352.150146 413.871735,352.124420 410.419128,352.492340 
	C406.727478,352.885712 407.383545,356.725708 406.176849,359.026581 
	C404.821381,361.611176 407.426666,360.773926 408.501221,361.291046 
	C409.598633,361.819122 409.468719,362.898193 409.344330,363.882233 
	C409.203064,364.999908 408.321167,365.013153 407.483704,365.016052 
	C404.657104,365.025848 401.830353,365.035950 399.003906,365.012299 
	C398.032959,365.004150 396.886047,365.124939 396.903809,363.623474 
	C396.917236,362.490784 396.706451,361.174774 398.479431,361.123322 
	C399.614807,361.090424 400.798218,361.299591 401.313568,359.776001 
	C404.375305,350.724121 408.859985,342.177124 410.544922,332.578186 
z"/>
<path fill="#080808" opacity="1.000000" stroke="none" 
	d="
M128.028076,360.260620 
	C128.541367,358.320648 127.006752,355.773254 130.162201,355.722870 
	C133.450226,355.670288 131.830719,358.271118 132.149323,359.754883 
	C133.100769,364.185516 131.208832,365.379852 126.845589,365.121124 
	C120.038338,364.717499 113.189186,365.050537 106.358765,364.978394 
	C105.209244,364.966278 103.502113,365.709747 103.166664,363.661560 
	C102.835060,361.636902 103.955383,361.009552 105.790474,361.109619 
	C108.240463,361.243317 107.756279,359.413483 107.760773,358.004639 
	C107.783623,350.840302 107.754478,343.675812 107.781616,336.511505 
	C107.789917,334.320221 108.199509,331.986115 104.724426,332.268616 
	C103.478363,332.369904 103.065468,331.489258 103.119087,330.297638 
	C103.179733,328.949982 104.032509,328.666321 105.118217,328.659973 
	C108.117088,328.642456 111.116112,328.642670 114.115059,328.645752 
	C115.298424,328.646973 116.525482,328.594177 116.669868,330.262238 
	C116.803383,331.804718 115.954651,332.432617 114.574898,332.317291 
	C112.047173,332.105988 112.050682,333.687653 112.060692,335.498840 
	C112.102112,342.996246 112.097984,350.494110 112.063324,357.991577 
	C112.055168,359.756378 111.939438,361.338013 114.525459,361.147827 
	C118.983498,360.819916 123.484306,361.623108 128.028076,360.260620 
z"/>
<path fill="#141414" opacity="1.000000" stroke="none" 
	d="
M370.851624,361.632935 
	C379.552765,360.221100 381.000122,358.543976 381.038788,349.752045 
	C381.054840,346.102020 381.232422,342.438477 380.977295,338.806335 
	C380.793671,336.192474 382.944855,332.097931 377.428650,332.087799 
	C376.506989,332.086121 376.625122,330.788940 376.692749,329.984039 
	C376.777283,328.977722 377.469513,328.615540 378.403107,328.616302 
	C381.721130,328.619019 385.039124,328.627594 388.357147,328.626526 
	C389.584595,328.626129 390.107971,329.218231 390.106140,330.449036 
	C390.104401,331.620392 389.737793,332.438263 388.451935,332.334930 
	C385.250214,332.077698 385.662354,334.285797 385.631531,336.284271 
	C385.536926,342.416779 385.733582,348.578003 385.193512,354.672821 
	C384.599457,361.376953 379.543396,365.208221 372.889099,365.022858 
	C370.477539,364.955658 369.981293,363.998352 370.851624,361.632935 
z"/>
<path fill="#FBFBFB" opacity="1.000000" stroke="none" 
	d="
M153.088959,360.405823 
	C145.238297,356.046661 142.391403,348.135101 145.684357,340.373627 
	C147.832703,335.309937 151.832047,332.624359 157.248550,332.342468 
	C162.283936,332.080414 167.337952,335.614594 169.078491,340.642731 
	C170.956787,346.068848 170.837265,351.481812 167.211716,356.235809 
	C163.715637,360.820068 158.948975,362.018707 153.088959,360.405823 
z"/>
<path fill="#F2F2F2" opacity="1.000000" stroke="none" 
	d="
M410.980865,346.048767 
	C412.502228,341.976807 413.920135,338.287964 415.655334,333.773651 
	C417.662262,339.123840 419.416016,343.799133 421.348633,348.951294 
	C417.813232,348.951294 414.871155,348.907166 411.931030,348.964478 
	C409.298035,349.015808 410.535370,347.561493 410.980865,346.048767 
z"/>
</svg>