<svg version="1.1" id="Layer_1" xmlns="http://www.w3.org/2000/svg" xmlns:xlink="http://www.w3.org/1999/xlink" x="0px" y="0px"
	 width="100%" viewBox="0 0 500 200" enable-background="new 0 0 500 200" xml:space="preserve">
<path fill="#000000" opacity="1.000000" stroke="none" 
	d="
M407.000000,201.000000 
	C271.333344,201.000000 136.166718,201.000000 1.000054,201.000000 
	C1.000036,134.333374 1.000036,67.666740 1.000018,1.000081 
	C167.666611,1.000054 334.333221,1.000054 500.999878,1.000027 
	C500.999908,67.666588 500.999908,134.333176 500.999939,200.999878 
	C469.833344,201.000000 438.666656,201.000000 407.000000,201.000000 
M284.786346,87.269371 
	C285.070038,90.969147 285.353729,94.668922 285.637421,98.368698 
	C285.994263,98.330498 286.351074,98.292297 286.707916,98.254097 
	C286.707916,93.432907 286.707916,88.611710 286.707916,85.776436 
	C286.780426,85.759888 285.479584,86.056778 283.252869,86.078041 
	C275.028290,86.078041 266.803711,86.078041 258.579132,86.078041 
	C258.580872,86.267570 258.582611,86.457100 258.584351,86.646629 
	C267.117615,86.646629 275.650848,86.646629 284.786346,87.269371 
M367.973297,117.067444 
	C367.973297,109.283470 367.973297,101.499496 367.973297,93.715515 
	C367.575012,93.717659 367.176727,93.719803 366.778442,93.721947 
	C366.778442,101.782898 366.778442,109.843849 365.882141,117.913445 
	C362.648102,117.913445 359.414062,117.913445 355.845703,117.913445 
	C355.845703,110.737038 355.845703,104.330338 355.845703,97.923637 
	C355.526154,97.922569 355.206635,97.921501 354.887085,97.920433 
	C354.887085,104.893318 354.887085,111.866203 354.887085,119.533585 
	C359.083374,119.040161 363.493683,118.521568 367.973297,117.067444 
M371.865631,87.198936 
	C371.964203,85.800117 372.062744,84.401299 372.178284,82.761810 
	C376.672760,82.761810 380.753174,82.761810 385.355164,82.761810 
	C383.822968,79.880959 382.522827,77.436417 381.323059,75.180603 
	C378.897034,75.180603 376.622650,75.180603 374.877136,75.180603 
	C373.761963,76.816383 372.330231,78.112633 371.937469,79.670761 
	C371.254028,82.381981 371.211670,85.254814 370.984802,88.986221 
	C370.984802,100.578430 370.984802,112.170639 370.984802,123.762856 
	C371.243500,123.764381 371.502167,123.765915 371.760864,123.767448 
	C371.760864,111.822968 371.760864,99.878494 371.865631,87.198936 
M74.018303,60.127922 
	C74.018303,79.717186 74.018303,99.306458 74.018303,119.013977 
	C78.502045,119.013977 82.586128,119.013977 86.670219,119.013977 
	C86.660423,118.653313 86.650627,118.292641 86.640839,117.931976 
	C82.879089,117.931976 79.117340,117.931976 75.052765,117.931976 
	C75.052765,103.007996 75.094971,88.390419 75.028687,73.773338 
	C75.007004,68.990875 74.703224,64.209702 74.018303,60.127922 
M129.169510,74.504150 
	C129.169510,81.014381 129.169510,87.524620 129.169510,94.034851 
	C129.543350,94.032745 129.917191,94.030632 130.291031,94.028519 
	C130.291031,82.121185 130.291031,70.213844 130.291031,58.030773 
	C129.621292,58.064072 128.482925,58.120670 128.652359,58.112247 
	C129.645798,63.322117 128.951706,68.469284 129.169510,74.504150 
M189.999390,64.613640 
	C189.795898,62.662121 189.592422,60.710602 189.388931,58.759079 
	C189.045959,58.805275 188.703003,58.851471 188.360031,58.897663 
	C188.360031,70.497856 188.360031,82.098053 188.360031,93.698242 
	C188.419907,93.693619 188.479782,93.688988 188.539673,93.684364 
	C189.026199,84.294136 189.512726,74.903915 189.999390,64.613640 
M103.983482,119.336807 
	C107.014236,119.336807 110.044991,119.336807 113.075752,119.336807 
	C113.068527,118.825806 113.061302,118.314812 113.054077,117.803810 
	C109.142555,117.803810 105.231033,117.803810 100.945488,117.803810 
	C100.945488,110.503891 100.945488,103.580597 100.945488,96.657303 
	C100.708443,96.660477 100.471390,96.663658 100.234344,96.666840 
	C100.234344,104.021896 100.234344,111.376953 100.234344,118.970474 
	C101.249237,118.970474 102.205482,118.970474 103.983482,119.336807 
M432.000153,105.480026 
	C432.000153,109.940048 432.000153,114.400063 432.000153,118.860085 
	C432.168488,118.867020 432.336853,118.873947 432.505188,118.880882 
	C432.505188,107.129921 432.505188,95.378952 432.505188,83.627991 
	C432.336853,83.612068 432.168488,83.596146 432.000153,83.580223 
	C432.000153,90.549049 432.000153,97.517868 432.000153,105.480026 
M428.999329,103.495911 
	C428.999329,96.837540 428.999329,90.179176 428.999329,83.520805 
	C428.480103,83.520164 427.960846,83.519524 427.441620,83.518883 
	C427.441620,95.270523 427.441620,107.022163 427.441620,119.475327 
	C428.057312,118.268486 428.898499,117.359886 428.934509,116.420425 
	C429.086700,112.449806 428.999207,108.470009 428.999329,103.495911 
M329.996613,89.690201 
	C329.996613,87.727020 329.996613,85.763847 329.996613,83.800667 
	C329.751343,83.818062 329.506042,83.835457 329.260773,83.852852 
	C329.260773,95.351242 329.260773,106.849632 329.260773,118.348022 
	C329.505890,118.349861 329.751038,118.351692 329.996155,118.353523 
	C329.996155,109.116867 329.996155,99.880203 329.996613,89.690201 
M176.998901,75.499802 
	C176.998901,70.229782 176.998901,64.959763 176.998901,59.689747 
	C176.770905,59.698040 176.542923,59.706337 176.314926,59.714630 
	C176.314926,70.241425 176.314926,80.768219 176.314926,91.295013 
	C176.542953,91.296066 176.770966,91.297119 176.998993,91.298172 
	C176.998993,86.364281 176.998993,81.430397 176.998901,75.499802 
M470.993530,98.640724 
	C470.993530,105.408600 470.993530,112.176476 470.993530,118.308342 
	C472.543518,117.252472 473.017639,93.511513 470.520813,89.938469 
	C470.685394,92.634666 470.839508,95.159317 470.993530,98.640724 
M117.097710,83.308647 
	C117.097710,75.399559 117.097710,67.490471 117.097710,59.581383 
	C116.829262,59.589256 116.560806,59.597130 116.292358,59.605003 
	C116.292358,69.263901 116.292358,78.922791 116.292358,88.581688 
	C116.496887,88.585846 116.701416,88.590004 116.905945,88.594162 
	C116.969864,87.146561 117.033791,85.698959 117.097710,83.308647 
M87.011925,72.485077 
	C87.011925,76.127014 87.011925,79.768959 87.011925,83.410896 
	C87.981544,75.497231 88.025673,67.591507 87.898499,59.688538 
	C87.888229,59.050339 86.702087,58.431061 86.682251,58.411583 
	C86.790672,62.726078 86.900917,67.112907 87.011925,72.485077 
M384.693146,71.636162 
	C384.991302,71.414864 385.289459,71.193573 385.587616,70.972282 
	C385.405640,70.781219 385.223633,70.590164 385.041626,70.399109 
	C384.805969,70.688026 384.570282,70.976936 384.693146,71.636162 
M372.242157,72.801392 
	C372.369324,72.972366 372.496521,73.143341 372.623688,73.314308 
	C372.595886,73.075668 372.568115,72.837029 372.242157,72.801392 
M371.229492,64.794487 
	C371.360291,64.970863 371.491089,65.147247 371.621887,65.323631 
	C371.593170,65.076218 371.564453,64.828804 371.229492,64.794487 
M383.595032,73.515160 
	C383.595032,73.515160 383.472321,73.590416 383.595032,73.515160 
z"/>
<path fill="#F8F8F8" opacity="1.000000" stroke="none" 
	d="
M370.900543,88.059898 
	C371.211670,85.254814 371.254028,82.381981 371.937469,79.670761 
	C372.330231,78.112633 373.761963,76.816383 374.877136,75.180603 
	C376.622650,75.180603 378.897034,75.180603 381.323059,75.180603 
	C382.522827,77.436417 383.822968,79.880959 385.355164,82.761810 
	C380.753174,82.761810 376.672760,82.761810 372.178284,82.761810 
	C372.062744,84.401299 371.964203,85.800117 371.589386,87.537994 
	C371.313141,87.877060 370.900543,88.059898 370.900543,88.059898 
z"/>
<path fill="#B6B6B6" opacity="1.000000" stroke="none" 
	d="
M74.273376,59.777927 
	C74.703224,64.209702 75.007004,68.990875 75.028687,73.773338 
	C75.094971,88.390419 75.052765,103.007996 75.052765,117.931976 
	C79.117340,117.931976 82.879089,117.931976 86.640839,117.931976 
	C86.650627,118.292641 86.660423,118.653313 86.670219,119.013977 
	C82.586128,119.013977 78.502045,119.013977 74.018303,119.013977 
	C74.018303,99.306458 74.018303,79.717186 74.273376,59.777927 
z"/>
<path fill="#C6C6C6" opacity="1.000000" stroke="none" 
	d="
M129.169434,74.005333 
	C128.951706,68.469284 129.645798,63.322117 128.652359,58.112247 
	C128.482925,58.120670 129.621292,58.064072 130.291031,58.030773 
	C130.291031,70.213844 130.291031,82.121185 130.291031,94.028519 
	C129.917191,94.030632 129.543350,94.032745 129.169510,94.034851 
	C129.169510,87.524620 129.169510,81.014381 129.169434,74.005333 
z"/>
<path fill="#141414" opacity="1.000000" stroke="none" 
	d="
M189.999329,65.063660 
	C189.512726,74.903915 189.026199,84.294136 188.539673,93.684364 
	C188.479782,93.688988 188.419907,93.693619 188.360031,93.698242 
	C188.360031,82.098053 188.360031,70.497856 188.360031,58.897663 
	C188.703003,58.851471 189.045959,58.805275 189.388931,58.759079 
	C189.592422,60.710602 189.795898,62.662121 189.999329,65.063660 
z"/>
<path fill="#9B9B9B" opacity="1.000000" stroke="none" 
	d="
M103.572601,119.153641 
	C102.205482,118.970474 101.249237,118.970474 100.234344,118.970474 
	C100.234344,111.376953 100.234344,104.021896 100.234344,96.666840 
	C100.471390,96.663658 100.708443,96.660477 100.945488,96.657303 
	C100.945488,103.580597 100.945488,110.503891 100.945488,117.803810 
	C105.231033,117.803810 109.142555,117.803810 113.054077,117.803810 
	C113.061302,118.314812 113.068527,118.825806 113.075752,119.336807 
	C110.044991,119.336807 107.014236,119.336807 103.572601,119.153641 
z"/>
<path fill="#C0C0C0" opacity="1.000000" stroke="none" 
	d="
M370.942688,88.523056 
	C370.900543,88.059898 371.313141,87.877060 371.536987,87.905533 
	C371.760864,99.878494 371.760864,111.822968 371.760864,123.767448 
	C371.502167,123.765915 371.243500,123.764381 370.984802,123.762856 
	C370.984802,112.170639 370.984802,100.578430 370.942688,88.523056 
z"/>
<path fill="#C9C9C9" opacity="1.000000" stroke="none" 
	d="
M432.000153,104.983360 
	C432.000153,97.517868 432.000153,90.549049 432.000153,83.580223 
	C432.168488,83.596146 432.336853,83.612068 432.505188,83.627991 
	C432.505188,95.378952 432.505188,107.129921 432.505188,118.880882 
	C432.336853,118.873947 432.168488,118.867020 432.000153,118.860085 
	C432.000153,114.400063 432.000153,109.940048 432.000153,104.983360 
z"/>
<path fill="#FFFFFF" opacity="1.000000" stroke="none" 
	d="
M428.999329,103.994736 
	C428.999207,108.470009 429.086700,112.449806 428.934509,116.420425 
	C428.898499,117.359886 428.057312,118.268486 427.441620,119.475327 
	C427.441620,107.022163 427.441620,95.270523 427.441620,83.518883 
	C427.960846,83.519524 428.480103,83.520164 428.999329,83.520805 
	C428.999329,90.179176 428.999329,96.837540 428.999329,103.994736 
z"/>
<path fill="#676767" opacity="1.000000" stroke="none" 
	d="
M329.996399,90.166870 
	C329.996155,99.880203 329.996155,109.116867 329.996155,118.353523 
	C329.751038,118.351692 329.505890,118.349861 329.260773,118.348022 
	C329.260773,106.849632 329.260773,95.351242 329.260773,83.852852 
	C329.506042,83.835457 329.751343,83.818062 329.996613,83.800667 
	C329.996613,85.763847 329.996613,87.727020 329.996399,90.166870 
z"/>
<path fill="#676767" opacity="1.000000" stroke="none" 
	d="
M367.903992,118.002975 
	C363.493683,118.521568 359.083374,119.040161 354.887085,119.533585 
	C354.887085,111.866203 354.887085,104.893318 354.887085,97.920433 
	C355.206635,97.921501 355.526154,97.922569 355.845703,97.923637 
	C355.845703,104.330338 355.845703,110.737038 355.845703,117.913445 
	C359.414062,117.913445 362.648102,117.913445 366.611389,117.938309 
	C367.528412,117.976448 367.716217,117.989708 367.903992,118.002975 
z"/>
<path fill="#A9A9A9" opacity="1.000000" stroke="none" 
	d="
M176.998947,75.998154 
	C176.998993,81.430397 176.998993,86.364281 176.998993,91.298172 
	C176.770966,91.297119 176.542953,91.296066 176.314926,91.295013 
	C176.314926,80.768219 176.314926,70.241425 176.314926,59.714630 
	C176.542923,59.706337 176.770905,59.698040 176.998901,59.689747 
	C176.998901,64.959763 176.998901,70.229782 176.998947,75.998154 
z"/>
<path fill="#FFFFFF" opacity="1.000000" stroke="none" 
	d="
M470.993561,98.162354 
	C470.839508,95.159317 470.685394,92.634666 470.520813,89.938469 
	C473.017639,93.511513 472.543518,117.252472 470.993530,118.308342 
	C470.993530,112.176476 470.993530,105.408600 470.993561,98.162354 
z"/>
<path fill="#FFFFFF" opacity="1.000000" stroke="none" 
	d="
M117.097710,83.779999 
	C117.033791,85.698959 116.969864,87.146561 116.905945,88.594162 
	C116.701416,88.590004 116.496887,88.585846 116.292358,88.581688 
	C116.292358,78.922791 116.292358,69.263901 116.292358,59.605003 
	C116.560806,59.597130 116.829262,59.589256 117.097710,59.581383 
	C117.097710,67.490471 117.097710,75.399559 117.097710,83.779999 
z"/>
<path fill="#C9C9C9" opacity="1.000000" stroke="none" 
	d="
M284.178741,86.353676 
	C285.479584,86.056778 286.780426,85.759888 286.707916,85.776436 
	C286.707916,88.611710 286.707916,93.432907 286.707916,98.254097 
	C286.351074,98.292297 285.994263,98.330498 285.637421,98.368698 
	C285.353729,94.668922 285.070038,90.969147 284.529602,86.883926 
	C284.272858,86.498489 284.178741,86.353683 284.178741,86.353676 
z"/>
<path fill="#F8F8F8" opacity="1.000000" stroke="none" 
	d="
M87.011536,71.992401 
	C86.900917,67.112907 86.790672,62.726078 86.682251,58.411583 
	C86.702087,58.431061 87.888229,59.050339 87.898499,59.688538 
	C88.025673,67.591507 87.981544,75.497231 87.011925,83.410896 
	C87.011925,79.768959 87.011925,76.127014 87.011536,71.992401 
z"/>
<path fill="#777777" opacity="1.000000" stroke="none" 
	d="
M283.715820,86.215866 
	C284.178741,86.353683 284.272858,86.498489 284.228455,86.572556 
	C275.650848,86.646629 267.117615,86.646629 258.584351,86.646629 
	C258.582611,86.457100 258.580872,86.267570 258.579132,86.078041 
	C266.803711,86.078041 275.028290,86.078041 283.715820,86.215866 
z"/>
<path fill="#636363" opacity="1.000000" stroke="none" 
	d="
M367.938660,117.535210 
	C367.716217,117.989708 367.528412,117.976448 367.059509,117.933990 
	C366.778442,109.843849 366.778442,101.782898 366.778442,93.721947 
	C367.176727,93.719803 367.575012,93.717659 367.973297,93.715515 
	C367.973297,101.499496 367.973297,109.283470 367.938660,117.535210 
z"/>
<path fill="#070707" opacity="1.000000" stroke="none" 
	d="
M384.513885,71.451004 
	C384.570282,70.976936 384.805969,70.688026 385.041626,70.399109 
	C385.223633,70.590164 385.405640,70.781219 385.587616,70.972282 
	C385.289459,71.193573 384.991302,71.414864 384.513885,71.451004 
z"/>
<path fill="#070707" opacity="1.000000" stroke="none" 
	d="
M372.391235,72.699890 
	C372.568115,72.837029 372.595886,73.075668 372.623688,73.314308 
	C372.496521,73.143341 372.369324,72.972366 372.391235,72.699890 
z"/>
<path fill="#070707" opacity="1.000000" stroke="none" 
	d="
M371.382629,64.687943 
	C371.564453,64.828804 371.593170,65.076218 371.621887,65.323624 
	C371.491089,65.147247 371.360291,64.970863 371.382629,64.687943 
z"/>
<path fill="#070707" opacity="1.000000" stroke="none" 
	d="
M383.533691,73.552788 
	C383.472321,73.590416 383.595032,73.515160 383.533691,73.552788 
z"/>
</svg>